<?xml version="1.0" encoding="utf-8" ?><svg xmlns="http://www.w3.org/2000/svg" xmlns:xlink="http://www.w3.org/1999/xlink" width="1000" height="1000" viewBox="0 0 1000 1000"><path fill="#080505" d="M451.478 101.748C458.551 100.821 468.719 102.909 475.214 105.795C524.842 127.846 545.406 189.229 563.868 235.697C575.16 264.121 585.632 290.734 597.024 318.916C600.415 326.492 604.715 337.833 612.897 341.23C619.724 344.065 628.044 344.149 635.275 344.295C642.612 344.443 649.981 344.457 657.293 344.515L726.315 345.152C767.216 345.424 805.427 343.688 844.717 359.677C878.021 373.23 902.269 402.265 887.03 439.453C881.174 452.282 871.933 463.672 863.787 475.155C854.099 488.811 844.96 502.787 832.589 514.129C802.928 541.325 764.467 554.059 727.809 568.656L648.99 600.058C647.939 628.717 648.507 659.052 648.062 688.023C647.416 730.099 649.914 772.143 631.813 811.641C625.98 823.891 617.966 834.957 609.872 845.8C591.036 871.034 582.895 891.645 548.944 896.406C541.202 897.104 532.139 895.496 524.984 892.394C475.266 870.843 454.93 809.917 436.544 763.567C425.223 735.201 414.056 706.608 402.47 678.376C394.075 657.921 388.244 653.927 366.059 653.878C359.046 653.863 350.937 653.797 343.856 653.726L273.647 653.091C234.239 652.834 194.208 654.301 156.971 639.151C138.355 631.577 120.587 620.148 112.419 600.969C99.2495 570.043 118.891 546.061 136.375 522.474C147.313 507.644 154.631 494.924 168.74 482.457C198.206 456.421 235.907 443.752 271.693 429.592C298.215 419.237 324.66 408.689 351.027 397.947L351.876 315.05C352.26 271.888 349.567 227.853 367.594 187.439C373.927 173.544 383.491 161.413 392.366 149.07C409.657 125.024 419.543 105.126 451.478 101.748Z"/><path fill="#FEFEFE" d="M451.418 112.97C461.462 111.624 474.384 116.558 482.496 122.213C520.285 148.557 535.627 195.197 551.857 236.053L577.348 300.226C599.331 355.467 597.315 355.225 656.775 355.767L726.018 356.397C770.06 356.67 823.99 354.065 861.596 382.054C871.293 389.464 879.023 400.861 880.234 413.184C882.802 439.304 860.286 461.714 840.885 475.548C816.104 493.218 786.857 503.347 758.81 514.487L693.887 540.238C638.726 561.856 638.033 559.917 637.414 618.94L636.766 689.003C636.505 733.085 639.175 788.022 610.549 825.275C602.628 835.583 591.297 842.152 578.248 843.562C567.828 844.605 555.98 840.24 547.539 834.44C509.636 808.396 493.838 760.368 477.772 719.869L452.194 655.457C429.064 597.273 429.296 600.932 366.264 600.603L298.431 600.068C255.093 599.66 206.091 601.689 169.02 575.128C145.916 558.574 143.659 530.506 160.385 508.288C187.555 472.199 231.514 457.682 271.822 441.684L338.516 415.21C352.447 409.669 372.097 403.316 382.77 392.98C392.521 383.537 391.873 364.209 392.237 351.664C392.47 343.667 392.452 334.998 392.503 326.853L393.144 254.887C393.577 213.556 392.475 167.12 418.807 131.663C426.953 120.693 437.865 114.605 451.418 112.97Z"/><path fill="#080505" d="M584.331 445.45C608.52 441.162 633.167 486.999 658.594 489.607C666.116 490.379 680.874 479.124 686.035 474.626C681.855 489.151 675.584 506.288 663.87 516.202C631.188 543.86 575.269 540.811 547.105 509.186C540.676 527.319 527.13 537.728 512.094 547.901C511.343 548.424 510.404 549.094 509.584 549.498C469.589 569.227 427.883 562.448 405.254 523.719C412.835 526.602 422.488 529.832 430.67 529.56C450.217 528.91 464.153 482.828 476.938 469.691C484.873 461.537 495.477 460.262 506.369 460.261C520.18 460.259 531.617 466.977 541.173 476.582C552.434 456.509 561.44 448.992 584.331 445.45Z"/><path fill="#080505" d="M419.401 455.755C429.533 453.824 439.297 460.523 441.141 470.671C442.985 480.819 436.203 490.524 426.039 492.281C415.998 494.017 406.435 487.334 404.613 477.309C402.791 467.283 409.392 457.663 419.401 455.755Z"/><path fill="#080505" d="M627.676 419.023C637.721 418.746 646.156 426.526 646.691 436.56C647.226 446.595 639.665 455.227 629.648 456.019C622.935 456.551 616.462 453.398 612.742 447.786C609.021 442.173 608.638 434.984 611.741 429.007C614.844 423.031 620.945 419.209 627.676 419.023Z"/></svg>